<svg height="30px" viewBox="0 -39 463.112 463" width="30px" xmlns="http://www.w3.org/2000/svg"><path d="m0 14.375h112v120h-112zm0 0" fill="#ffde55"/><path d="m112 350.375v-168h-112v200h112zm0 0" fill="#ffde55"/><g fill="#0b7"><path d="m112 350.375h112v32h-112zm0 0"/><path d="m112 270.375h112v48h-112zm0 0"/><path d="m112 182.375v56h112v-224h-112zm0 0"/></g><path d="m72 78.375c0 8.835938-7.164062 16-16 16s-16-7.164062-16-16 7.164062-16 16-16 16 7.164062 16 16zm0 0" fill="#ffa733"/><path d="m0 134.375h112v48h-112zm0 0" fill="#d1d3d4"/><path d="m112 238.375h112v32h-112zm0 0" fill="#c49a6c"/><path d="m112 318.375h112v32h-112zm0 0" fill="#c49a6c"/><path d="m273.953125 153.648438 83.910156 230.535156 105.25-38.304688-76.617187-210.496094-105.25 38.304688zm0 0" fill="#ff7956"/><path d="m375.519531 105.335938-105.199219 38.320312-38.320312-105.28125 105.28125-38.3203125zm0 0" fill="#ff7956"/><path d="m301.039062 64.328125c-8.304687 3.011719-12.59375 12.1875-9.585937 20.492187 3.011719 8.304688 12.183594 12.601563 20.492187 9.59375 8.304688-3.007812 12.601563-12.179687 9.597657-20.484374-1.441407-3.996094-4.414063-7.25-8.261719-9.050782-3.84375-1.800781-8.25-2-12.242188-.550781zm0 0" fill="#ffd422"/><path d="m375.550781 105.3125 10.945313 30.070312zm0 0" fill="#bddbff"/><path d="m270.304688 143.625 3.648437 10.023438zm0 0" fill="#bddbff"/><path d="m270.304688 143.625 3.648437 10.023438 7.292969 20.039062 105.25-38.304688-10.945313-30.070312zm0 0" fill="#d1d3d4"/><path d="m56 102.375c-13.253906 0-24-10.746094-24-24s10.746094-24 24-24 24 10.746094 24 24-10.746094 24-24 24zm0-32c-4.417969 0-8 3.582031-8 8s3.582031 8 8 8 8-3.582031 8-8-3.582031-8-8-8zm0 0" fill="#ff7956"/><path d="m306.496094 103.375c-12.496094.027344-22.9375-9.507812-24.046875-21.953125-1.113281-12.445313 7.472656-23.675781 19.777343-25.863281 12.300782-2.191406 24.234376 5.386718 27.488282 17.449218 3.25 12.066407-3.257813 24.613282-14.996094 28.902344-2.632812.96875-5.417969 1.460938-8.222656 1.464844zm0-32c-.9375.003906-1.863282.167969-2.742188.488281-3.859375 1.421875-5.996094 5.550781-4.921875 9.523438 1.074219 3.96875 5 6.457031 9.050781 5.738281 4.046876-.71875 6.875-4.414062 6.515626-8.507812-.363282-4.097657-3.789063-7.238282-7.902344-7.242188zm0 0" fill="#3d9ae2"/></svg>